<?xml version="1.0" encoding="utf-8"?>
<!-- Generator: Adobe Illustrator 27.8.1, SVG Export Plug-In . SVG Version: 6.00 Build 0)  -->
<svg version="1.2" baseProfile="tiny" id="Layer_1" xmlns="http://www.w3.org/2000/svg" xmlns:xlink="http://www.w3.org/1999/xlink"
	 x="0px" y="0px" viewBox="0 0 283.5 283.5" overflow="visible" xml:space="preserve">
<path fill="#B6CCD8" d="M279.8,273.3c-1.5-1.7-2.7-3.7-2.7-4.7c0-0.9-0.8-3.6-1.8-6s-1.8-4.8-1.8-5.4s-0.8-2.6-1.7-4.5
	c-2.4-4.8-4.5-9.5-5.1-11.7c-0.3-1-1.9-4.3-3.6-7.4c-1.7-3.1-3.1-5.9-3.1-6.3s-0.3-0.6-0.6-0.6c-0.7,0-1.6,2-3.1,7.2
	c-0.9,3.1-1.1,3.2-3.5,3c-1.4-0.1-3.3-0.8-4.2-1.4c-0.9-0.7-2.3-1.6-3.1-2c-0.7-0.4-1.1-1-0.9-1.3s-3.8-4.8-9.1-10.2
	c-10.2-10.3-11-11.3-12.2-15.8c-2.1-7.7-4.1-9.2-13.8-10c-3.3-0.3-7.2-0.9-8.8-1.5c-1.6-0.5-4-0.8-5.5-0.6c-1.7,0.2-2.9,0-3.5-0.7
	c-0.6-0.7-1.6-0.9-2.9-0.6c-1.1,0.2-2.2,0.1-2.5-0.4c-0.3-0.4-1-0.8-1.6-0.8c-1.6,0-9.6-3.7-9.6-4.4c0-0.3-0.5-0.6-1.1-0.6
	c-0.9,0-1,0.8-0.7,4.3c0.2,2.7,0.1,4.3-0.3,4.3c-0.4,0-0.7,0.7-0.7,1.6c0,1.5,0.1,1.5,0.7,0.2c0.7-1.6,0.6-1.7,1,6.1
	c0.1,1.8,0.4,4,0.7,5l0.5,1.8l-1.5-1.8l-1.5-1.8l0,3c0,3.2,0.5,3.7,2.1,2.2c0.8-0.7,0.8-0.6,0.1,0.7c-1,1.9-2.4,2.1-3.9,0.6
	c-0.6-0.6-1.2-0.9-1.4-0.7c-0.2,0.2-0.2-1.3,0-3.3c0.2-2.4,0.1-3.6-0.5-3.6c-0.5,0-0.8-1.7-0.8-4.9v-4.9h-3.6c-2.2,0-4-0.4-4.6-1
	c-1-1.1-4-10.3-4-12.2c0-1.6,2-3.1,5.8-4.4l3.3-1.1l0.9,3.1c0.5,1.7,1.2,3.1,1.5,3.1s0.4,0.6,0.2,1.4c-0.2,0.8-0.1,1.4,0.3,1.4
	c1.1,0,1.7-3.1,0.7-3.7c-0.6-0.4-0.5-0.6,0.4-0.6c0.7,0,1.3-0.3,1.3-0.7c0-0.4-0.4-0.7-0.8-0.7c-0.5,0-0.6-0.6-0.4-1.5
	c0.3-1-0.3-2.1-2-3.6c-1.4-1.3-2.3-2.7-2.1-3.4c0.4-1.5-3.5-5.8-6.5-7.3c-1.2-0.6-6.2-3.7-11.1-7s-9.2-5.9-9.5-5.9s-1.1,1.2-1.8,2.6
	c-0.7,1.4-2.3,3.4-3.7,4.5c-1.5,1.2-3.5,4-5.2,7.7c-2.2,4.6-3.4,6.2-6.1,8.1c-2.5,1.8-3.2,2.7-2.8,3.6c0.9,2.1,1.2,5.1,0.7,7
	c-0.6,2.4-2,2.3-1.7-0.1c0.1-1.4-0.2-2-1-2.2c-1.6-0.3-1.7,2.4-0.3,4.5c0.7,0.9,0.8,2,0.4,3c-0.7,2-1.1,2-4.1,0.2
	c-1.8-1.1-2.3-1.9-2.3-3.7c0-2.3,1.7-8.4,3.1-11c0.4-0.8,2.1-4.2,3.8-7.6c1.7-3.4,4-7.3,5.1-8.6c2.9-3.3,6.6-9.7,6.7-11.2
	c0-1.8,3.4-8.8,5.1-10.7c1.3-1.3,1.3-1.8,0.5-3.2c-0.5-0.9-1-1.8-1-2c-0.2-1.3-2-3.6-2.9-3.6c-0.8,0-1-0.7-0.6-3.4
	c0.2-1.9,0.5-3.6,0.7-3.9c0.2-0.3,0-0.6-0.4-0.8c-1.1-0.4,0.9-4.1,2.5-4.7c0.8-0.3,1.7-0.4,1.9-0.4c0.3,0.1,1.4-0.2,2.5-0.7
	c1.1-0.4,3.1-0.7,4.4-0.6c1.5,0.1,2.9-0.3,3.8-1.1c0.8-0.7,1.4-0.9,1.4-0.4c0,0.4,1.3,1.5,2.9,2.3c3.2,1.6,4.1,3.7,2.9,6.7
	c-0.9,2.3-0.3,3.6,3.5,8.2c2.5,3.1,2.6,3.1,6.5,2.8c8.1-0.6,13.1-4,25.8-17.6l3.4-3.6l-3.3-4.9c-2.2-3.3-3.9-5-5.1-5.2
	c-2.3-0.5-5-2.3-5-3.4c0-0.5-1-1.6-2.1-2.5c-2.2-1.7-5-8.2-5-11.6c0-1-0.8-2.7-1.8-3.9c-1-1.2-1.8-2.4-1.8-2.8s-0.7-1.3-1.5-2
	c-0.8-0.8-2.5-3.1-3.7-5.1c-1.2-2.1-2.4-3.8-2.7-3.8c-1.5,0-6.4-12.3-10.8-27.3c-0.9-3-3.1-8.1-4.8-11.5s-4.5-8.5-6.1-11.5
	s-3.1-5.5-3.5-5.6c-0.3-0.1-0.6-0.6-0.6-1.1c0-1.2-2.1-5.3-2.9-5.8c-0.4-0.2-1-1-1.4-1.8c-0.7-1.4,0.4-1.4,100.4-1.4h54.2V276
	l-1.5,0.3L279.8,273.3L279.8,273.3z M251.5,222.5c1.8-2.1,0.9-7.7-1.6-10c-2.6-2.5-17.5-15-19.4-16.3c-1.7-1.2-1.4-0.6,7.5,15.4
	C244.4,223,248.3,226.2,251.5,222.5L251.5,222.5z M254.6,218.5c-0.2-0.6-0.4-1.3-0.4-1.4s-0.3-0.3-0.7-0.3c-0.4,0-0.5,0.6-0.3,1.4
	c0.2,0.8,0.7,1.4,1.1,1.4C254.7,219.7,254.9,219.1,254.6,218.5L254.6,218.5z M245.1,206.6c-0.3-0.5-1.2-1.9-2.1-3s-3.3-5.5-5.3-9.7
	c-4.9-9.8-4.8-9.6-7-7.9c-1,0.8-2.2,1.4-2.7,1.4c-0.5,0-1.3,0.5-1.8,1c-0.7,0.8-0.2,1.7,3,4.8c3.4,3.4,15.7,14.1,16.2,14.2
	C245.6,207.5,245.4,207.1,245.1,206.6L245.1,206.6z M172.5,193c-0.5-0.5-0.8-0.6-0.8-0.1c0,1,0.8,1.8,1.3,1.3
	C173.2,194,173,193.4,172.5,193L172.5,193z M171.2,189.5c0.2-0.8,0.1-1.4-0.3-1.4c-0.4,0-0.7,0.6-0.7,1.4c0,0.8,0.1,1.4,0.3,1.4
	S171,190.3,171.2,189.5z M170.2,185.9c0-1.6-0.1-1.7-0.7-0.4c-0.3,0.8-0.6,2.1-0.7,2.9c0,1.2,0.1,1.2,0.7,0.4
	C169.9,188.2,170.2,186.9,170.2,185.9z M211.1,182.5c0-0.3-0.4-1.8-1-3.3c-1-2.8-10.1-12.7-11.7-12.7c-0.7,0-3.8,5.4-3.8,6.7
	c0,0.3,0.9,0.5,2,0.5c2.5,0,3.7,1.2,3.7,3.6c0,1.6,0.6,2.1,4.8,3.8C210.6,183.2,211.2,183.3,211.1,182.5L211.1,182.5z M226.4,178.5
	c1.5-1.6,2.7-3.5,2.7-4.3c0-0.7-1.3-3.9-3-7.1c-2.2-4.2-3-6.8-3.2-9.4c-0.1-2.4-0.5-3.8-1.3-4.2c-0.6-0.4-1.2-1.2-1.2-1.9
	c0-0.7-0.6-1.9-1.4-2.6c-0.8-0.7-1.8-2.3-2.2-3.6c-0.4-1.3-1.2-2.5-1.8-2.8c-1.4-0.5-1.4,4,0,19.4c1.5,16.6,2.9,20.7,6.8,19.8
	C222.9,181.7,224.9,180.1,226.4,178.5L226.4,178.5z M207.2,170.7c-1.4-4.5-4.2-11.3-4.6-11.3c-0.2,0-1.1,1.3-2,3l-1.6,3l4.1,4.2
	c2.3,2.3,4.3,4.2,4.6,4.2S207.7,172.4,207.2,170.7L207.2,170.7z M184.2,155.2c0.2-0.4-0.1-0.8-0.8-0.9c-1.1-0.2-1.1-0.3,0.1-1.5
	c0.7-0.7,1.8-1.1,2.5-0.9c0.8,0.3,2.2-0.5,4-2.2c1.5-1.4,5.1-4.1,7.8-6s5.5-4,6-4.6c0.6-0.7,2.1-1.2,4.1-1.2c2.1,0,3.1-0.3,3.1-0.9
	c0-2.7-2.4-8.3-4.3-10.2c-1.2-1.1-2.2-2.6-2.2-3.3c0-2-2.3-4.2-4.7-4.4c-1.7-0.2-3,0.4-5.4,2.3c-1.7,1.4-4.2,3.3-5.5,4.1
	c-1.3,0.9-4.2,4-6.6,6.9s-5.4,5.8-6.8,6.4c-1.4,0.7-2.7,1.5-2.9,1.9c-0.6,0.9,1.3,6.3,3.7,10.7c1.6,2.9,2.4,3.6,4.1,3.9
	c1.2,0.2,2.4,0.3,2.6,0.4C183.6,155.8,184,155.5,184.2,155.2L184.2,155.2z"/>
</svg>
