<?xml version="1.0" encoding="utf-8"?>
<!-- Generator: Adobe Illustrator 27.8.1, SVG Export Plug-In . SVG Version: 6.00 Build 0)  -->
<svg version="1.2" baseProfile="tiny" id="Layer_1" xmlns="http://www.w3.org/2000/svg" xmlns:xlink="http://www.w3.org/1999/xlink"
	 x="0px" y="0px" viewBox="0 0 283.5 283.5" overflow="visible" xml:space="preserve">
<path fill="#B6CCD8" d="M4.1,273.3l-2.7,3L0,276L0,0.1h54.2c100,0,101.2,0,100.4,1.4c-0.4,0.8-1,1.6-1.4,1.8
	c-0.9,0.5-2.9,4.6-2.9,5.8c0,0.5-0.3,1-0.6,1.1c-0.3,0.1-1.9,2.7-3.5,5.6c-1.6,3-4.3,8.1-6.1,11.5s-4,8.5-4.8,11.5
	c-4.4,15-9.3,27.3-10.8,27.3c-0.3,0-1.5,1.7-2.7,3.8s-2.8,4.4-3.7,5.1c-0.8,0.8-1.5,1.7-1.5,2s-0.8,1.6-1.8,2.8s-1.8,2.9-1.8,3.9
	c0,3.4-2.8,9.9-5,11.6c-1.2,0.9-2.1,2.1-2.1,2.5c0,1.1-2.7,2.9-5,3.4c-1.2,0.2-2.9,2-5.1,5.2l-3.3,4.9l3.4,3.6
	c12.8,13.6,17.8,17,25.8,17.6c3.9,0.3,4,0.3,6.5-2.8c3.8-4.6,4.4-5.9,3.5-8.2c-1.2-3-0.3-5.1,2.9-6.7c1.6-0.8,2.9-1.8,2.9-2.3
	c0-0.5,0.6-0.3,1.4,0.4c0.8,0.8,2.3,1.2,3.8,1.1c1.3-0.1,3.3,0.2,4.4,0.6c1.1,0.4,2.2,0.8,2.5,0.7c0.3-0.1,1.2,0.1,1.9,0.4
	c1.7,0.6,3.7,4.3,2.5,4.7c-0.4,0.1-0.6,0.5-0.4,0.8c0.2,0.3,0.5,2,0.7,3.9c0.3,2.7,0.2,3.4-0.6,3.4c-0.9,0-2.7,2.3-2.9,3.6
	c0,0.2-0.5,1.1-1,2c-0.8,1.5-0.7,1.9,0.5,3.2c1.7,1.8,5.1,8.9,5.1,10.7c0,1.5,3.8,7.9,6.7,11.2c1.1,1.3,3.4,5.2,5.1,8.6
	s3.4,6.8,3.8,7.6c1.4,2.7,3.1,8.8,3.1,11c0,1.8-0.5,2.6-2.3,3.7c-3,1.8-3.3,1.8-4.1-0.2c-0.4-1.1-0.3-2.1,0.4-3
	c1.5-2.1,1.3-4.9-0.3-4.5c-0.9,0.2-1.2,0.8-1,2.2c0.3,2.5-1.1,2.6-1.7,0.1c-0.5-1.9-0.2-4.9,0.7-7c0.4-0.9-0.3-1.8-2.8-3.6
	c-2.7-1.9-3.9-3.5-6.1-8.1c-1.7-3.6-3.7-6.4-5.2-7.7c-1.3-1.1-3-3.1-3.7-4.5c-0.7-1.4-1.5-2.6-1.8-2.6s-4.6,2.7-9.5,5.9
	s-9.9,6.4-11.1,7c-3,1.5-6.9,5.9-6.5,7.3c0.2,0.7-0.7,2.1-2.1,3.4c-1.7,1.5-2.3,2.6-2,3.6c0.2,0.8,0,1.5-0.4,1.5
	c-0.4,0-0.8,0.3-0.8,0.7c0,0.4,0.6,0.7,1.3,0.7c0.9,0,1,0.2,0.4,0.6c-1,0.6-0.4,3.7,0.7,3.7c0.4,0,0.5-0.6,0.3-1.4
	c-0.2-0.8-0.1-1.4,0.2-1.4s1-1.4,1.5-3.1l0.9-3.1l3.3,1.1c3.8,1.3,5.8,2.8,5.8,4.4c0,1.9-3,11.2-4,12.2c-0.6,0.6-2.3,1-4.6,1h-3.6
	v4.9c0,3.1-0.3,4.9-0.8,4.9c-0.5,0-0.7,1.2-0.5,3.6c0.2,2,0.2,3.4,0,3.3c-0.2-0.2-0.8,0.1-1.4,0.7c-1.5,1.5-2.9,1.3-3.9-0.6
	c-0.7-1.3-0.7-1.5,0.1-0.7c1.6,1.5,2.1,1,2.1-2.2l0-3l-1.5,1.8l-1.5,1.8l0.5-1.8c0.3-1,0.6-3.2,0.7-5c0.4-7.8,0.4-7.7,1-6.1
	c0.6,1.4,0.6,1.4,0.7-0.2c0-0.9-0.3-1.6-0.7-1.6c-0.4,0-0.6-1.7-0.3-4.3c0.3-3.5,0.2-4.3-0.7-4.3c-0.6,0-1.1,0.3-1.1,0.6
	c0,0.7-7.9,4.4-9.6,4.4c-0.6,0-1.3,0.4-1.6,0.8c-0.3,0.4-1.4,0.6-2.5,0.4c-1.3-0.3-2.3,0-2.9,0.6c-0.6,0.7-1.7,0.9-3.5,0.7
	c-1.4-0.2-3.9,0.1-5.5,0.6c-1.6,0.5-5.5,1.2-8.8,1.5c-9.7,0.8-11.7,2.3-13.8,10c-1.2,4.5-1.9,5.4-12.2,15.8
	c-5.3,5.3-9.4,9.9-9.1,10.2s-0.1,0.8-0.9,1.3c-0.7,0.4-2.1,1.3-3.1,2c-0.9,0.7-2.8,1.3-4.2,1.4c-2.4,0.2-2.5,0.1-3.5-3
	c-1.5-5.1-2.4-7.2-3.1-7.2c-0.3,0-0.6,0.3-0.6,0.6s-1.4,3.2-3.1,6.3s-3.4,6.4-3.6,7.4c-0.6,2.1-2.7,6.9-5.1,11.7
	c-1,1.9-1.7,3.9-1.7,4.5s-0.8,3-1.8,5.4s-1.8,5-1.8,6C6.8,269.6,5.6,271.7,4.1,273.3L4.1,273.3z M32.4,222.5
	c3.2,3.7,7.1,0.5,13.5-11c8.9-16,9.2-16.6,7.5-15.4c-1.9,1.3-16.8,13.8-19.4,16.3C31.5,214.9,30.6,220.4,32.4,222.5L32.4,222.5z
	 M29.3,218.5c-0.2,0.6-0.1,1.1,0.3,1.1s0.9-0.6,1.1-1.4c0.2-0.8,0.1-1.4-0.3-1.4s-0.7,0.1-0.7,0.3S29.6,217.9,29.3,218.5L29.3,218.5
	z M38.8,206.6c-0.3,0.5-0.4,0.9-0.3,0.9c0.5-0.1,12.8-10.8,16.2-14.2c3.1-3.1,3.7-4,3-4.8c-0.5-0.6-1.3-1-1.8-1
	c-0.5,0-1.7-0.6-2.7-1.4c-2.2-1.7-2.1-1.9-7,7.9c-2.1,4.1-4.5,8.5-5.3,9.7C40,204.7,39.1,206.1,38.8,206.6L38.8,206.6z M111.4,193
	c-0.5,0.5-0.7,1-0.5,1.2c0.5,0.5,1.3-0.4,1.3-1.3C112.3,192.4,111.9,192.4,111.4,193L111.4,193z M113.4,191c0.2,0,0.3-0.6,0.3-1.4
	c0-0.8-0.3-1.4-0.7-1.4c-0.4,0-0.5,0.6-0.3,1.4C113,190.3,113.3,191,113.4,191z M114.4,188.8c0.6,0.9,0.7,0.8,0.7-0.4
	c0-0.8-0.3-2.1-0.7-2.9c-0.6-1.3-0.6-1.3-0.7,0.4C113.7,186.9,114,188.2,114.4,188.8z M72.8,182.5c0,0.8,0.6,0.6,5.9-1.5
	c4.2-1.7,4.8-2.2,4.8-3.8c0-2.4,1.2-3.6,3.7-3.6c1.1,0,2-0.2,2-0.5c0-1.3-3.1-6.7-3.8-6.7c-1.6,0-10.7,9.9-11.7,12.7
	C73.3,180.8,72.8,182.2,72.8,182.5L72.8,182.5z M57.6,178.5c1.5,1.6,3.5,3.2,4.5,3.4c3.9,0.9,5.3-3.3,6.8-19.8
	c1.4-15.5,1.4-20,0-19.4c-0.6,0.2-1.4,1.5-1.8,2.8c-0.4,1.3-1.4,2.9-2.2,3.6s-1.4,1.9-1.4,2.6c0,0.7-0.5,1.6-1.2,1.9
	c-0.8,0.4-1.2,1.8-1.3,4.2c-0.1,2.6-1,5.2-3.2,9.4c-1.7,3.2-3,6.4-3,7.1C54.9,175,56.1,176.9,57.6,178.5L57.6,178.5z M76.8,170.7
	c-0.5,1.7-0.8,3-0.5,3c0.3,0,2.3-1.9,4.6-4.2l4.1-4.2l-1.6-3c-0.9-1.7-1.8-3-2-3C81,159.4,78.2,166.2,76.8,170.7L76.8,170.7z
	 M99.7,155.2c0.2,0.4,0.6,0.6,0.9,0.5c0.3-0.1,1.5-0.2,2.6-0.4c1.7-0.2,2.6-1,4.1-3.9c2.4-4.4,4.3-9.8,3.7-10.7
	c-0.2-0.4-1.6-1.2-2.9-1.9c-1.4-0.7-4.4-3.6-6.8-6.4c-2.4-2.9-5.3-6-6.6-6.9c-1.3-0.9-3.7-2.8-5.5-4.1c-2.4-1.9-3.7-2.5-5.4-2.3
	c-2.4,0.2-4.7,2.4-4.7,4.4c0,0.7-1,2.2-2.2,3.3c-1.9,1.8-4.3,7.4-4.3,10.2c0,0.6,1,0.9,3.1,0.9c2,0,3.5,0.4,4.1,1.2
	c0.5,0.6,3.2,2.7,6,4.6s6.3,4.6,7.8,6c1.8,1.7,3.2,2.5,4,2.2c0.7-0.2,1.8,0.2,2.5,0.9c1.2,1.2,1.2,1.3,0.1,1.5
	C99.9,154.4,99.5,154.8,99.7,155.2L99.7,155.2z"/>
</svg>
